<svg width="28" height="26" viewBox="0 0 28 26" fill="none" xmlns="http://www.w3.org/2000/svg">
<path d="M22.2505 9.78026C22.2658 10.1942 22.6138 10.5173 23.0277 10.502C23.4416 10.4867 23.7648 10.1388 23.7495 9.72483L22.2505 9.78026ZM18.1782 5.41921V6.16921C18.1863 6.16921 18.1943 6.16908 18.2024 6.16883L18.1782 5.41921ZM10.9468 5.41921L10.9226 6.16883C10.9307 6.16908 10.9387 6.16921 10.9468 6.16921V5.41921ZM5.37551 9.72483C5.36021 10.1388 5.68335 10.4867 6.09728 10.502C6.51122 10.5173 6.85918 10.1942 6.87449 9.78026L5.37551 9.72483ZM23.75 9.75255C23.75 9.33833 23.4142 9.00255 23 9.00255C22.5858 9.00255 22.25 9.33833 22.25 9.75255H23.75ZM23 16.2525L23.7495 16.2803C23.7498 16.271 23.75 16.2618 23.75 16.2525H23ZM18.1782 20.5859L18.2024 19.8363C18.1943 19.836 18.1863 19.8359 18.1782 19.8359V20.5859ZM10.9468 20.5859V19.8359C10.9387 19.8359 10.9307 19.836 10.9226 19.8363L10.9468 20.5859ZM6.125 16.2525H5.375C5.375 16.2618 5.37517 16.271 5.37551 16.2803L6.125 16.2525ZM6.875 9.75255C6.875 9.33833 6.53921 9.00255 6.125 9.00255C5.71079 9.00255 5.375 9.33833 5.375 9.75255H6.875ZM23.3677 10.4062C23.7287 10.2031 23.8568 9.74586 23.6537 9.38484C23.4506 9.02383 22.9933 8.89579 22.6323 9.09887L23.3677 10.4062ZM17.078 13.0838L16.7103 12.4301L16.7041 12.4336L17.078 13.0838ZM12.047 13.0838L12.4209 12.4336L12.4147 12.4301L12.047 13.0838ZM6.49271 9.09887C6.13169 8.89579 5.6744 9.02383 5.47132 9.38484C5.26825 9.74586 5.39628 10.2031 5.75729 10.4062L6.49271 9.09887ZM23.7495 9.72483C23.6416 6.80857 21.1131 4.57437 18.1541 4.6696L18.2024 6.16883C20.3895 6.09843 22.1751 7.74137 22.2505 9.78026L23.7495 9.72483ZM18.1782 4.66921H10.9468V6.16921H18.1782V4.66921ZM10.9709 4.6696C8.01187 4.57437 5.48335 6.80857 5.37551 9.72483L6.87449 9.78026C6.94988 7.74137 8.7355 6.09843 10.9226 6.16883L10.9709 4.6696ZM22.25 9.75255V16.2525H23.75V9.75255H22.25ZM22.2505 16.2248C22.1751 18.2637 20.3895 19.9067 18.2024 19.8363L18.1541 21.3355C21.1131 21.4307 23.6416 19.1965 23.7495 16.2803L22.2505 16.2248ZM18.1782 19.8359H10.9468V21.3359H18.1782V19.8359ZM10.9226 19.8363C8.7355 19.9067 6.94988 18.2637 6.87449 16.2248L5.37551 16.2803C5.48335 19.1965 8.01188 21.4307 10.9709 21.3355L10.9226 19.8363ZM6.875 16.2525V9.75255H5.375V16.2525H6.875ZM22.6323 9.09887L16.7103 12.4301L17.4457 13.7375L23.3677 10.4062L22.6323 9.09887ZM16.7041 12.4336C15.3862 13.1915 13.7388 13.1915 12.4209 12.4336L11.6731 13.734C13.454 14.7581 15.671 14.7581 17.4519 13.734L16.7041 12.4336ZM12.4147 12.4301L6.49271 9.09887L5.75729 10.4062L11.6793 13.7375L12.4147 12.4301Z" fill="black"/>
</svg>
