<svg width="125" height="24" viewBox="0 0 125 24" fill="none" xmlns="http://www.w3.org/2000/svg">
<path d="M11.0489 2.92705C11.3483 2.00574 12.6517 2.00574 12.9511 2.92705L14.4697 7.60081C14.6035 8.01284 14.9875 8.2918 15.4207 8.2918H20.335C21.3037 8.2918 21.7065 9.53141 20.9228 10.1008L16.947 12.9894C16.5966 13.244 16.4499 13.6954 16.5838 14.1074L18.1024 18.7812C18.4017 19.7025 17.3472 20.4686 16.5635 19.8992L12.5878 17.0106C12.2373 16.756 11.7627 16.756 11.4122 17.0106L7.43648 19.8992C6.65276 20.4686 5.59828 19.7025 5.89763 18.7812L7.41623 14.1074C7.55011 13.6954 7.40345 13.244 7.05296 12.9894L3.07722 10.1008C2.29351 9.53141 2.69628 8.2918 3.66501 8.2918H8.57929C9.01252 8.2918 9.39647 8.01284 9.53035 7.60081L11.0489 2.92705Z" fill="#28C2A0"/>
<path d="M40.0489 2.92705C40.3483 2.00574 41.6517 2.00574 41.9511 2.92705L43.4697 7.60081C43.6035 8.01284 43.9875 8.2918 44.4207 8.2918H49.335C50.3037 8.2918 50.7065 9.53141 49.9228 10.1008L45.947 12.9894C45.5966 13.244 45.4499 13.6954 45.5838 14.1074L47.1024 18.7812C47.4017 19.7025 46.3472 20.4686 45.5635 19.8992L41.5878 17.0106C41.2373 16.756 40.7627 16.756 40.4122 17.0106L36.4365 19.8992C35.6528 20.4686 34.5983 19.7025 34.8976 18.7812L36.4162 14.1074C36.5501 13.6954 36.4034 13.244 36.053 12.9894L32.0772 10.1008C31.2935 9.53141 31.6963 8.2918 32.665 8.2918H37.5793C38.0125 8.2918 38.3965 8.01284 38.5303 7.60081L40.0489 2.92705Z" fill="#28C2A0"/>
<path d="M64.0489 2.92705C64.3483 2.00574 65.6517 2.00574 65.9511 2.92705L67.4697 7.60081C67.6035 8.01284 67.9875 8.2918 68.4207 8.2918H73.335C74.3037 8.2918 74.7065 9.53141 73.9228 10.1008L69.947 12.9894C69.5966 13.244 69.4499 13.6954 69.5838 14.1074L71.1024 18.7812C71.4017 19.7025 70.3472 20.4686 69.5635 19.8992L65.5878 17.0106C65.2373 16.756 64.7627 16.756 64.4122 17.0106L60.4365 19.8992C59.6528 20.4686 58.5983 19.7025 58.8976 18.7812L60.4162 14.1074C60.5501 13.6954 60.4034 13.244 60.053 12.9894L56.0772 10.1008C55.2935 9.53141 55.6963 8.2918 56.665 8.2918H61.5793C62.0125 8.2918 62.3965 8.01284 62.5303 7.60081L64.0489 2.92705Z" fill="#28C2A0"/>
<path d="M88.0489 2.92705C88.3483 2.00574 89.6517 2.00574 89.9511 2.92705L91.4697 7.60081C91.6035 8.01284 91.9875 8.2918 92.4207 8.2918H97.335C98.3037 8.2918 98.7065 9.53141 97.9228 10.1008L93.947 12.9894C93.5966 13.244 93.4499 13.6954 93.5838 14.1074L95.1024 18.7812C95.4017 19.7025 94.3472 20.4686 93.5635 19.8992L89.5878 17.0106C89.2373 16.756 88.7627 16.756 88.4122 17.0106L84.4365 19.8992C83.6528 20.4686 82.5983 19.7025 82.8976 18.7812L84.4162 14.1074C84.5501 13.6954 84.4034 13.244 84.053 12.9894L80.0772 10.1008C79.2935 9.53141 79.6963 8.2918 80.665 8.2918H85.5793C86.0125 8.2918 86.3965 8.01284 86.5303 7.60081L88.0489 2.92705Z" fill="#28C2A0"/>
<path d="M112.049 2.92705C112.348 2.00574 113.652 2.00574 113.951 2.92705L115.47 7.60081C115.604 8.01284 115.987 8.2918 116.421 8.2918H121.335C122.304 8.2918 122.706 9.53141 121.923 10.1008L117.947 12.9894C117.597 13.244 117.45 13.6954 117.584 14.1074L119.102 18.7812C119.402 19.7025 118.347 20.4686 117.564 19.8992L113.588 17.0106C113.237 16.756 112.763 16.756 112.412 17.0106L108.436 19.8992C107.653 20.4686 106.598 19.7025 106.898 18.7812L108.416 14.1074C108.55 13.6954 108.403 13.244 108.053 12.9894L104.077 10.1008C103.294 9.53141 103.696 8.2918 104.665 8.2918H109.579C110.013 8.2918 110.396 8.01284 110.53 7.60081L112.049 2.92705Z" fill="#28C2A0"/>
</svg>
