<svg width="75" height="74" viewBox="0 0 75 74" fill="none" xmlns="http://www.w3.org/2000/svg">
<circle cx="37.5" cy="37" r="37" fill="#28C2A0"/>
<path d="M37.499 44.9995C37.3335 44.9993 37.1707 44.9581 37.025 44.8795L24.025 37.8795L24.973 36.1195L37.499 42.8635L50.025 36.1195L50.973 37.8795L37.973 44.8795C37.8274 44.9581 37.6645 44.9993 37.499 44.9995Z" fill="white"/>
<path d="M37.499 50.9995C37.3335 50.9993 37.1707 50.9581 37.025 50.8795L24.025 43.8795L24.973 42.1195L37.499 48.8635L50.025 42.1195L50.973 43.8795L37.973 50.8795C37.8274 50.9581 37.6645 50.9993 37.499 50.9995ZM37.499 38.9995C37.3335 38.9993 37.1707 38.9581 37.025 38.8795L24.025 31.8795C23.8663 31.7938 23.7337 31.6668 23.6412 31.5118C23.5488 31.3569 23.5 31.1799 23.5 30.9995C23.5 30.8191 23.5488 30.642 23.6412 30.4871C23.7337 30.3322 23.8663 30.2052 24.025 30.1195L37.025 23.1195C37.1707 23.0411 37.3336 23 37.499 23C37.6645 23 37.8273 23.0411 37.973 23.1195L50.973 30.1195C51.1318 30.2052 51.2644 30.3322 51.3568 30.4871C51.4493 30.642 51.4981 30.8191 51.4981 30.9995C51.4981 31.1799 51.4493 31.3569 51.3568 31.5118C51.2644 31.6668 51.1318 31.7938 50.973 31.8795L37.973 38.8795C37.8274 38.9581 37.6645 38.9993 37.499 38.9995ZM26.609 30.9995L37.499 36.8635L48.389 30.9995L37.499 25.1355L26.609 30.9995Z" fill="white"/>
</svg>
