<svg width="75" height="74" viewBox="0 0 75 74" fill="none" xmlns="http://www.w3.org/2000/svg">
<circle cx="37.5" cy="37" r="37" fill="#28C2A0"/>
<path d="M50.5073 23H50.8909C52.8831 23 54.5 24.421 54.5 26.1718V26.5089C54.4987 30.7146 52.5967 34.7475 49.2122 37.7208L48.2676 38.5527C47.6187 39.1219 46.9457 39.668 46.2486 40.1912V46.0038C46.2486 47.1057 45.599 48.128 44.5307 48.7043L38.8098 51.7982C38.6087 51.907 38.382 51.9739 38.1469 51.9938C37.9119 52.0136 37.6748 51.9859 37.4538 51.9128C37.2328 51.8397 37.0338 51.723 36.8721 51.5718C36.7103 51.4207 36.5901 51.2389 36.5206 51.0406L34.5532 45.4183C34.4455 45.3514 34.3453 45.2755 34.2541 45.1918L29.2447 40.7911C29.1502 40.7109 29.0645 40.6229 28.989 40.5283L22.5917 38.7992C22.366 38.7382 22.1592 38.6325 21.9872 38.4904C21.8152 38.3482 21.6825 38.1733 21.5992 37.9791C21.516 37.7849 21.4845 37.5765 21.5071 37.37C21.5297 37.1634 21.6058 36.9641 21.7296 36.7874L25.2562 31.7596C25.5791 31.2983 26.031 30.9174 26.5689 30.6531C27.1069 30.3888 27.7128 30.25 28.3291 30.2498H34.9368C35.5321 29.636 36.1535 29.0446 36.8011 28.4754L37.7477 27.6453C41.1317 24.6712 45.7215 23.0002 50.5073 23ZM39.9358 29.5666H39.9317L38.9872 30.3967C37.4198 31.7741 36.0236 33.293 34.8213 34.9278L31.7278 39.1273L36.1473 43.0114L40.9258 40.2927C42.786 39.236 44.5142 38.009 46.0795 36.6315L47.0261 35.8014C48.4145 34.5811 49.5157 33.1323 50.2669 31.5379C51.0182 29.9435 51.4047 28.2346 51.4044 26.5089V26.1718C51.4044 26.0516 51.3501 25.9364 51.2534 25.8514C51.1567 25.7664 51.0256 25.7187 50.8889 25.7187H50.5053C46.541 25.7192 42.7393 27.1033 39.9358 29.5666ZM28.8446 49.3895C27.335 50.7162 24.0312 51.2835 22.6473 51.4702C22.5727 51.4813 22.4962 51.4766 22.4241 51.4564C22.3519 51.4362 22.2864 51.4012 22.2328 51.3542C22.1793 51.3071 22.1395 51.2495 22.1165 51.1861C22.0935 51.1227 22.0882 51.0554 22.1008 50.9899C22.3132 49.7737 22.9588 46.8701 24.4725 45.547C24.7524 45.2682 25.0943 45.0427 25.4772 44.8845C25.86 44.7262 26.2757 44.6386 26.6986 44.627C27.1215 44.6154 27.5426 44.68 27.9359 44.8169C28.3293 44.9538 28.6866 45.1601 28.9857 45.423C29.2849 45.6859 29.5196 45.9999 29.6754 46.3456C29.8312 46.6913 29.9047 47.0614 29.8915 47.4331C29.8783 47.8047 29.7786 48.17 29.5985 48.5065C29.4185 48.843 29.1619 49.1435 28.8446 49.3895ZM43.1572 42.2574C42.9757 42.3662 42.7929 42.4719 42.6086 42.5746L37.7621 45.3313L38.8923 48.563L42.9118 46.388C42.9868 46.3475 43.0487 46.2907 43.0917 46.2231C43.1347 46.1555 43.1572 46.0794 43.1572 46.002V42.2574ZM29.088 37.7099L32.2269 33.4507C32.3465 33.2875 32.4675 33.1268 32.5898 32.9685H28.327C28.2389 32.9685 28.1523 32.9883 28.0754 33.0261C27.9985 33.0638 27.9339 33.1183 27.8877 33.1842L25.4129 36.7185L29.088 37.7099ZM46.2507 32.0623C46.2507 32.543 46.0334 33.004 45.6466 33.3439C45.2599 33.6838 44.7353 33.8748 44.1884 33.8748C43.6414 33.8748 43.1168 33.6838 42.7301 33.3439C42.3433 33.004 42.126 32.543 42.126 32.0623C42.126 31.5816 42.3433 31.1206 42.7301 30.7807C43.1168 30.4408 43.6414 30.2498 44.1884 30.2498C44.7353 30.2498 45.2599 30.4408 45.6466 30.7807C46.0334 31.1206 46.2507 31.5816 46.2507 32.0623Z" fill="white"/>
</svg>
