<svg width="75" height="74" viewBox="0 0 75 74" fill="none" xmlns="http://www.w3.org/2000/svg">
<circle cx="37.5" cy="37" r="37" fill="#28C2A0"/>
<path d="M27.5 45.6667V42.5417H29.5833V31.0833C29.5833 30.5104 29.7873 30.02 30.1953 29.612C30.6033 29.204 31.0938 29 31.6667 29H47.2917V31.0833H31.6667V42.5417H37.9167V45.6667H27.5ZM41.0417 45.6667C40.7465 45.6667 40.4991 45.5668 40.2995 45.3672C40.0998 45.1675 40 44.9201 40 44.625V34.2083C40 33.9132 40.0998 33.6658 40.2995 33.4661C40.4991 33.2665 40.7465 33.1667 41.0417 33.1667H47.2917C47.5868 33.1667 47.8342 33.2665 48.0339 33.4661C48.2335 33.6658 48.3333 33.9132 48.3333 34.2083V44.625C48.3333 44.9201 48.2335 45.1675 48.0339 45.3672C47.8342 45.5668 47.5868 45.6667 47.2917 45.6667H41.0417ZM42.0833 42.5417H46.25V35.25H42.0833V42.5417Z" fill="white"/>
</svg>
